<svg viewBox="0.09999999999999928 0.09999999999999948 119.9 25.900000000000002" xmlns="http://www.w3.org/2000/svg" width="2500" height="538"><linearGradient id="b" gradientTransform="matrix(1 0 0 -1 0 28)" gradientUnits="userSpaceOnUse" x1="39.89" x2="36.96" y1="35.72" y2="6.016"><stop offset=".34" stop-color="#f4d78f"/><stop offset="1" stop-color="#e1b63d"/></linearGradient><linearGradient id="c" gradientTransform="matrix(1 0 0 -1 0 28)" gradientUnits="userSpaceOnUse" x1="82.473" x2="82.999" y1=".388" y2="26.953"><stop offset="0" stop-color="#d2a12a"/><stop offset=".88" stop-color="#f1cd6a"/><stop offset="1" stop-color="#f1ce6c"/></linearGradient><g><path d="M60.1 21.9V4.1H46.9v5.3H24.3c-2.1 0-2.3.1-3.3.9-1.2 1-4.2 3.8-6.6 6.2H47v5.3h13.1z" fill="url(#b)"/><path d="M60.1 4.1v17.8h13.1v-5.3h22.9c2.1 0 2.3-.1 3.3-.9 1.2-1 4-3.8 6.4-6.2H73.2V4.1z" fill="url(#c)"/><path d="M41.4 20.6l4.8-3.3H12.5L.1 20.5c0 .1.1.1.3.1z" fill="#76777a"/><path d="M41.5.2s-.1.2-.1.3v5l4.8 3.3V3.4z" fill="#b1b1b1"/><path d="M78.3 26s.2 0 .3-.1l-4.7-3.2H46.2l-4.7 3.2c.1.1.2.1.3.1z" fill="#76777a"/><path d="M46.2 8.7l-4.8-3.3H21c-5.5 0-5.8.3-9.4 3.4-1.5 1.3-8.8 8.5-11.4 11.3-.1.1-.1.3 0 .4l12.4-3.1h.1-.1c2.4-2.5 6.1-6.2 7.5-7.4 1.2-1.1 1.8-1.3 3.9-1.3z" fill="#d9d8d6"/><path d="M46.2 17.4l-4.8 3.3v5s0 .2.1.3l4.7-3.2zM78.6 25.9s.1-.2.1-.3v-5l-4.8-3.3v5.3z" fill="#b1b1b1"/><path d="M78.3.1H41.8s-.2 0-.3.1l4.7 3.2h27.7L78.6.2s-.2-.1-.3-.1z" fill="#d9d8d6"/><path d="M73.9 17.4l4.8 3.3h20.4c5.5 0 5.8-.3 9.4-3.4C110 16 117.3 8.8 119.9 6c.1-.1.1-.3 0-.4l-12.4 3.1c-2.4 2.5-6.1 6.2-7.5 7.4-1.2 1.1-1.8 1.3-3.9 1.3H73.9z" fill="#76777a"/><path d="M73.9 8.7l4.8-3.3v-5s0-.2-.1-.3l-4.7 3.2z" fill="#b1b1b1"/><path d="M119.7 5.5h-41l-4.8 3.3h33.7L120 5.7c-.1-.2-.2-.2-.3-.2z" fill="#d9d8d6"/><path d="M14.3 16.6c2.4-2.5 5.4-5.3 6.6-6.2 1-.9 1.3-.9 3.3-.9h22.6V4.1H73v5.3h32.6l1.9-.7H73.9V3.4H46.2v5.3H23.9c-2.1 0-2.6.2-3.9 1.3-1.3 1.2-5.1 4.9-7.5 7.4z" fill="#977124"/><path d="M105.7 9.4c-2.4 2.5-5.2 5.3-6.4 6.2-1 .9-1.3.9-3.3.9H73.1v5.3H46.9v-5.3H14.3l-1.8.7h33.7v5.3h27.7v-5.3h22.3c2.1 0 2.6-.2 3.9-1.3 1.3-1.2 5.1-4.9 7.5-7.4z" fill="#f3e7c0"/><path d="M60.1 21.9V4.1H46.9v5.3H24.3c-2.1 0-2.3.1-3.3.9-1.2 1-4.2 3.8-6.6 6.2H47v5.3h13.1z" fill="url(#b)"/><path d="M60.1 4.1v17.8h13.1v-5.3h22.9c2.1 0 2.3-.1 3.3-.9 1.2-1 4-3.8 6.4-6.2H73.2V4.1z" fill="url(#c)"/><path d="M41.4 20.6l4.8-3.3H12.5L.1 20.5c0 .1.1.1.3.1z" fill="#76777a"/><path d="M41.5.2s-.1.2-.1.3v5l4.8 3.3V3.4z" fill="#b1b1b1"/><path d="M78.3 26s.2 0 .3-.1l-4.7-3.2H46.2l-4.7 3.2c.1.1.2.1.3.1z" fill="#76777a"/><path d="M46.2 8.7l-4.8-3.3H21c-5.5 0-5.8.3-9.4 3.4-1.5 1.3-8.8 8.5-11.4 11.3-.1.1-.1.3 0 .4l12.4-3.1h.1-.1c2.4-2.5 6.1-6.2 7.5-7.4 1.2-1.1 1.8-1.3 3.9-1.3z" fill="#d9d8d6"/><path d="M46.2 17.4l-4.8 3.3v5s0 .2.1.3l4.7-3.2zM78.6 25.9s.1-.2.1-.3v-5l-4.8-3.3v5.3z" fill="#b1b1b1"/><path d="M78.3.1H41.8s-.2 0-.3.1l4.7 3.2h27.7L78.6.2s-.2-.1-.3-.1z" fill="#d9d8d6"/><path d="M73.9 17.4l4.8 3.3h20.4c5.5 0 5.8-.3 9.4-3.4C110 16 117.3 8.8 119.9 6c.1-.1.1-.3 0-.4l-12.4 3.1c-2.4 2.5-6.1 6.2-7.5 7.4-1.2 1.1-1.8 1.3-3.9 1.3H73.9z" fill="#76777a"/><path d="M73.9 8.7l4.8-3.3v-5s0-.2-.1-.3l-4.7 3.2z" fill="#b1b1b1"/><path d="M119.7 5.5h-41l-4.8 3.3h33.7L120 5.7c-.1-.2-.2-.2-.3-.2z" fill="#d9d8d6"/></g></svg>